<mxfile host="app.diagrams.net" agent="Mozilla/5.0 (Windows NT 10.0; Win64; x64) AppleWebKit/537.36 (KHTML, like Gecko) Chrome/140.0.0.0 Safari/537.36" version="28.2.1">
  <diagram id="7gcUSTIZ7YSJ5vT40chW" name="Page-1">
    <mxGraphModel grid="1" page="1" gridSize="10" guides="1" tooltips="1" connect="1" arrows="1" fold="1" pageScale="1" pageWidth="1169" pageHeight="827" background="#ffffff" math="0" shadow="1">
      <root>
        <mxCell id="0" />
        <mxCell id="1" parent="0" />
        <mxCell id="M7SeO1mPTdzSNuAZCHN5-28" value="" style="whiteSpace=wrap;html=1;fillColor=none;rounded=0;labelBackgroundColor=none;fontColor=none;noLabel=1;" vertex="1" parent="1">
          <mxGeometry x="60" y="-740" width="910" height="590" as="geometry" />
        </mxCell>
        <mxCell id="M7SeO1mPTdzSNuAZCHN5-29" value="" style="whiteSpace=wrap;html=1;rounded=0;fillColor=none;" vertex="1" parent="1">
          <mxGeometry x="110" y="-677.5" width="680" height="507.5" as="geometry" />
        </mxCell>
        <mxCell id="M7SeO1mPTdzSNuAZCHN5-30" value="Azure Cloud - US Central Region" style="image;aspect=fixed;html=1;points=[];align=left;fontSize=17;image=img/lib/azure2/other/Azure_A.svg;labelBackgroundColor=none;labelPosition=right;verticalLabelPosition=middle;verticalAlign=middle;spacing=8;" vertex="1" parent="1">
          <mxGeometry x="60" y="-770" width="31.82" height="30" as="geometry" />
        </mxCell>
        <mxCell id="M7SeO1mPTdzSNuAZCHN5-35" value="Virtual Network - ad-vnet (10.0.0.0/23)" style="image;aspect=fixed;html=1;points=[];align=left;fontSize=17;image=img/lib/azure2/networking/Virtual_Networks.svg;labelBackgroundColor=none;labelPosition=right;verticalLabelPosition=middle;verticalAlign=middle;spacing=8;" vertex="1" parent="1">
          <mxGeometry x="102.82" y="-713" width="40" height="23.88" as="geometry" />
        </mxCell>
        <mxCell id="M7SeO1mPTdzSNuAZCHN5-36" value="" style="whiteSpace=wrap;html=1;fillColor=none;rounded=0;" vertex="1" parent="1">
          <mxGeometry x="150" y="-630" width="280" height="180" as="geometry" />
        </mxCell>
        <mxCell id="M7SeO1mPTdzSNuAZCHN5-42" value="mini-ad-subnet (10.0.0.128/25)" style="image;aspect=fixed;html=1;points=[];align=left;fontSize=12;image=img/lib/azure2/networking/Subnet.svg;labelBackgroundColor=none;labelPosition=right;verticalLabelPosition=middle;verticalAlign=middle;spacing=9;" vertex="1" parent="1">
          <mxGeometry x="150" y="-660" width="33.4" height="20" as="geometry" />
        </mxCell>
        <mxCell id="M7SeO1mPTdzSNuAZCHN5-43" value="" style="whiteSpace=wrap;html=1;fillColor=none;rounded=0;" vertex="1" parent="1">
          <mxGeometry x="470" y="-630" width="280" height="430" as="geometry" />
        </mxCell>
        <mxCell id="M7SeO1mPTdzSNuAZCHN5-45" value="vm-subnet (10.0.0.0/25)" style="image;aspect=fixed;html=1;points=[];align=left;fontSize=12;image=img/lib/azure2/networking/Subnet.svg;labelPosition=right;verticalLabelPosition=middle;verticalAlign=middle;labelBackgroundColor=none;spacing=6;" vertex="1" parent="1">
          <mxGeometry x="469.99999999999994" y="-660" width="33.4" height="20" as="geometry" />
        </mxCell>
        <mxCell id="-MAp2PhC2MX8vbxwuHtW-7" value="win-ad-instance" style="image;sketch=0;aspect=fixed;html=1;points=[];align=center;fontSize=12;image=img/lib/mscae/VirtualMachineWindows.svg;labelBackgroundColor=none;" vertex="1" parent="1">
          <mxGeometry x="575" y="-572.2" width="70" height="64.4" as="geometry" />
        </mxCell>
        <mxCell id="-MAp2PhC2MX8vbxwuHtW-8" value="nfs-gateway&lt;br&gt;&lt;div&gt;&lt;br&gt;&lt;/div&gt;" style="image;sketch=0;aspect=fixed;html=1;points=[];align=center;fontSize=12;image=img/lib/mscae/VM_Linux.svg;labelBackgroundColor=none;" vertex="1" parent="1">
          <mxGeometry x="575" y="-332.2" width="70" height="64.4" as="geometry" />
        </mxCell>
        <mxCell id="-MAp2PhC2MX8vbxwuHtW-9" value="key vault&lt;div&gt;account&amp;nbsp;&lt;/div&gt;&lt;div&gt;credentials&lt;/div&gt;" style="image;aspect=fixed;html=1;points=[];align=center;fontSize=12;image=img/lib/azure2/security/Key_Vaults.svg;labelBackgroundColor=none;" vertex="1" parent="1">
          <mxGeometry x="840.5" y="-300" width="68" height="68" as="geometry" />
        </mxCell>
        <mxCell id="P3Sn6zYhS6wMDTIlGnOm-1" value="" style="whiteSpace=wrap;html=1;fillColor=none;rounded=0;" vertex="1" parent="1">
          <mxGeometry x="150" y="-400" width="280" height="200" as="geometry" />
        </mxCell>
        <mxCell id="P3Sn6zYhS6wMDTIlGnOm-2" value="bastion-subnet (10.0.1.0/25)" style="image;aspect=fixed;html=1;points=[];align=left;fontSize=12;image=img/lib/azure2/networking/Subnet.svg;labelBackgroundColor=none;labelPosition=right;verticalLabelPosition=middle;verticalAlign=middle;spacing=9;" vertex="1" parent="1">
          <mxGeometry x="150" y="-433" width="33.4" height="20" as="geometry" />
        </mxCell>
        <mxCell id="P3Sn6zYhS6wMDTIlGnOm-7" value="mcloud.mikecloud.com&lt;div&gt;Samba4&lt;/div&gt;&lt;div&gt;Domain Controller&lt;/div&gt;" style="image;aspect=fixed;perimeter=ellipsePerimeter;html=1;align=center;shadow=0;dashed=0;spacingTop=3;image=img/lib/active_directory/domain_controller.svg;labelBackgroundColor=none;" vertex="1" parent="1">
          <mxGeometry x="260" y="-600.0000000000001" width="49" height="70" as="geometry" />
        </mxCell>
        <mxCell id="P3Sn6zYhS6wMDTIlGnOm-8" value="Bastion Host&lt;div&gt;SSH and RDP Access&lt;/div&gt;" style="image;aspect=fixed;html=1;points=[];align=center;fontSize=12;image=img/lib/azure2/networking/Bastions.svg;labelBackgroundColor=none;" vertex="1" parent="1">
          <mxGeometry x="254.41" y="-340" width="54.59" height="64" as="geometry" />
        </mxCell>
        <mxCell id="01CU1SmGABvfrQRs_Wb2-2" value="NFS&lt;div&gt;Storage Account&lt;/div&gt;" style="image;aspect=fixed;html=1;points=[];align=center;fontSize=12;image=img/lib/azure2/storage/Storage_Accounts.svg;labelBackgroundColor=none;labelPosition=center;verticalLabelPosition=top;verticalAlign=bottom;" vertex="1" parent="1">
          <mxGeometry x="843.5" y="-624.2" width="65" height="52" as="geometry" />
        </mxCell>
        <mxCell id="01CU1SmGABvfrQRs_Wb2-3" value="" style="image;sketch=0;aspect=fixed;html=1;points=[];align=center;fontSize=12;image=img/lib/mscae/NetworkInterfaceCard.svg;rotation=90;" vertex="1" parent="1">
          <mxGeometry x="680" y="-438" width="44" height="50" as="geometry" />
        </mxCell>
        <mxCell id="01CU1SmGABvfrQRs_Wb2-8" value="Private Link to&lt;div&gt;Storage Account&lt;/div&gt;" style="image;aspect=fixed;html=1;points=[];align=center;fontSize=12;image=img/lib/azure2/networking/Private_Endpoint.svg;labelBackgroundColor=none;" vertex="1" parent="1">
          <mxGeometry x="844.5" y="-450" width="64" height="58.66" as="geometry" />
        </mxCell>
        <mxCell id="01CU1SmGABvfrQRs_Wb2-9" value="" style="endArrow=classic;startArrow=classic;html=1;rounded=0;" edge="1" parent="1">
          <mxGeometry width="50" height="50" relative="1" as="geometry">
            <mxPoint x="730" y="-420" as="sourcePoint" />
            <mxPoint x="846" y="-420" as="targetPoint" />
          </mxGeometry>
        </mxCell>
        <mxCell id="01CU1SmGABvfrQRs_Wb2-12" value="" style="endArrow=classic;startArrow=classic;html=1;rounded=0;" edge="1" parent="1" source="01CU1SmGABvfrQRs_Wb2-2" target="01CU1SmGABvfrQRs_Wb2-8">
          <mxGeometry width="50" height="50" relative="1" as="geometry">
            <mxPoint x="520" y="-430" as="sourcePoint" />
            <mxPoint x="570" y="-480" as="targetPoint" />
          </mxGeometry>
        </mxCell>
      </root>
    </mxGraphModel>
  </diagram>
</mxfile>
